<?xml version="1.0" encoding="utf-8"?>
<!-- Generator: Adobe Illustrator 22.0.1, SVG Export Plug-In . SVG Version: 6.00 Build 0)  -->
<svg version="1.1" id="Capa_1" xmlns="http://www.w3.org/2000/svg" xmlns:xlink="http://www.w3.org/1999/xlink" x="0px" y="0px"
	 viewBox="0 0 512 512" style="enable-background:new 0 0 512 512;" xml:space="preserve">
<style type="text/css">
	.st0{fill:#FFFFFF;}
</style>
<g>
	<g>
		<path class="st0" d="M146.8,286c-5.5,0-10,4.5-10,10s4.5,10,10,10s10-4.5,10-10S152.3,286,146.8,286z"/>
	</g>
</g>
<g>
	<g>
		<path class="st0" d="M146.8,326c-5.5,0-10,4.5-10,10v126c0,5.5,4.5,10,10,10s10-4.5,10-10V336C156.8,330.5,152.3,326,146.8,326z"
			/>
	</g>
</g>
<g>
	<g>
		<path class="st0" d="M424.2,7.5c-0.8-3.2-3.2-5.8-6.3-6.9c-3.1-1.1-6.6-0.6-9.3,1.3c-10,7.3-60.3,44.9-68.4,67.4
			c-4.9,13.4-3.8,28,2.8,40.4c-12.3,17.6-25,41.9-36.1,65.6V10c0-5.5-4.5-10-10-10h-80c-5.5,0-10,4.5-10,10v196H205l-17.1-66.4
			c0,0,0-0.1,0-0.1l-15.5-57.9c0,0,0,0,0,0c-0.1-0.3-0.2-0.7-0.3-1c0-0.1-0.1-0.2-0.1-0.3c-0.1-0.2-0.2-0.4-0.3-0.7
			c-0.1-0.1-0.1-0.2-0.2-0.3c-0.1-0.2-0.2-0.4-0.4-0.6c-0.1-0.1-0.1-0.2-0.2-0.3c-0.1-0.2-0.3-0.4-0.4-0.6c0-0.1-0.1-0.1-0.1-0.2
			L111,7.7c-2.5-2.9-6.4-4.2-10.1-3.2c-3.7,1-6.6,4-7.3,7.7l-17.9,90.6c0,0.1,0,0.1,0,0.2c0,0.3-0.1,0.5-0.1,0.8c0,0.1,0,0.2,0,0.3
			c0,0.3,0,0.5,0,0.7c0,0.1,0,0.2,0,0.3c0,0.3,0,0.5,0.1,0.8c0,0.1,0,0.2,0,0.3c0.1,0.4,0.1,0.7,0.2,1l15.5,57.9l10.4,41.2
			c-6.1,1-11.7,3.9-16.1,8.4c-5.7,5.7-8.8,13.2-8.8,21.2c0,13,8.4,24.2,20,28.3V462c0,27.6,22.4,50,50,50h200c27.6,0,50-22.4,50-50
			V264.3c4.2-1.5,8-3.9,11.2-7.1c5.7-5.7,8.8-13.2,8.8-21.2c0-14.6-10.5-26.8-24.4-29.5c6.5-26.5,11.1-52.8,12.8-73.5
			c13.4-5.2,23.9-15.8,28.9-29.5C442.3,81,427.3,19.6,424.2,7.5z M356.2,125.8c4.1,3.3,8.8,5.9,13.8,7.7c4.8,1.7,9.8,2.7,14.8,3
			c-2,19.9-6.6,44.8-12.9,69.6h-57.2C330.1,171.4,344.2,144.1,356.2,125.8z M226.8,20h60v23h-20c-5.5,0-10,4.5-10,10s4.5,10,10,10
			h20v20h-20c-5.5,0-10,4.5-10,10s4.5,10,10,10h20v20h-20c-5.5,0-10,4.5-10,10c0,5.5,4.5,10,10,10h20v20h-20c-5.5,0-10,4.5-10,10
			s4.5,10,10,10h20v23h-60V20z M109.2,36.4l41,48.3c-6.2,7.8-14.6,13.4-24.4,16c-9.7,2.6-19.8,2-29-1.6L109.2,36.4z M100.1,121
			c4.4,0.9,8.9,1.4,13.5,1.4c5.8,0,11.6-0.8,17.3-2.3c10.2-2.7,19.5-7.8,27.1-14.6l10.5,39.1l15.8,61.4h-62.1l-11.6-45.7
			c0,0,0-0.1,0-0.1L100.1,121z M376.8,462c0,16.5-13.5,30-30,30h-200c-16.5,0-30-13.5-30-30V266h260V462z M396.8,236
			c0,2.7-1,5.2-2.9,7.1c-1.9,1.9-4.4,2.9-7.1,2.9h-280c-5.5,0-10-4.5-10-10c0-2.7,1-5.2,2.9-7.1c1.9-1.9,4.4-2.9,7.1-2.9h90.4
			c0,0,0,0,0.1,0c0,0,0,0,0,0h102.2c0,0,0,0,0,0c0,0,0,0,0,0h80.1c0,0,0,0,0,0c0,0,0,0,0.1,0h7C392.3,226,396.8,230.5,396.8,236z
			 M415.3,96.7c-3.5,9.7-11.7,16.8-21.8,19c-5.5,1.2-11.3,0.9-16.7-1.1c-5.6-2-10.4-5.6-13.9-10.4c0,0,0,0,0,0
			c-6-8.1-7.5-18.6-4.1-28.1c3.7-10.3,28.1-32.2,49.4-48.9C414.2,53.8,419.1,86.4,415.3,96.7z"/>
	</g>
</g>
</svg>
