<svg id="teacherprofile" xmlns="http://www.w3.org/2000/svg" width="156.143" height="145.5" viewBox="0 0 156.143 145.5">
  <g id="_022---Male-Teacher" data-name="022---Male-Teacher" transform="translate(0 0)">
    <path id="Shape" d="M148.336,72.75H101.493a7.555,7.555,0,0,0-7.807,7.275V109.22l-15.614-2.182V93.273a22.574,22.574,0,0,0,7.987-19.23,20.224,20.224,0,0,0,9.759-12.389c.781-4.935,1.356-13.464-3.451-15.13-.086-.032-.19-.056-.284-.085,2.066-8.109,4.369-17.276,1.47-25.38C89.129,8.72,75.857,6.577,68.474,7.173,65.632,5.139,56.69,0,38.854,0A30.281,30.281,0,0,0,13.936,12.53C7.159,21.939,5.986,34.7,10.67,47.086,7.042,49.6,7.576,57.135,8.3,61.75a20.258,20.258,0,0,0,9.746,12.292A22.57,22.57,0,0,0,26.024,93.27v13.764l-19.39,2.7A7.421,7.421,0,0,0,0,116.933v21.291A7.555,7.555,0,0,0,7.807,145.5H148.336a7.555,7.555,0,0,0,7.807-7.275v-58.2a7.555,7.555,0,0,0-7.807-7.275ZM52.048,121.216A29.324,29.324,0,0,1,31.229,108.49V99.015c.908,1.213,1.738,2.389,2.5,3.5,3.172,4.646,6.17,9.036,13.535,9.036h9.577c7.367,0,10.363-4.389,13.532-9.036.76-1.111,1.587-2.292,2.5-3.5v9.457A29.63,29.63,0,0,1,52.048,121.216Zm-22.175-6.23a34.631,34.631,0,0,0,17.589,10.345L43,130.872a16.288,16.288,0,0,1-10.961-5.092A13.506,13.506,0,0,1,29.873,114.986Zm44.35,0a13.53,13.53,0,0,1-2.144,10.769,16.424,16.424,0,0,1-10.987,5.112l-4.458-5.536a34.631,34.631,0,0,0,17.589-10.345ZM90.685,60.868a14.589,14.589,0,0,1-4.825,7.275c0-.4-.034-.793-.034-1.2a37.224,37.224,0,0,1,.908-7.559c.422-2.207.885-4.726,1.228-8.046a4.063,4.063,0,0,1,2.418-.31c.807,1.05.963,5.687.3,9.841ZM18.258,15.234A25.03,25.03,0,0,1,38.854,4.85c19.39,0,26.916,6.518,26.987,6.569a2.722,2.722,0,0,0,2.2.681c.658-.085,16.148-1.94,20.59,10.491,2.019,5.645.893,12.418-.635,18.837a21.845,21.845,0,0,0-5.231-12.292,16.511,16.511,0,0,0-12.5-4.886,31.9,31.9,0,0,0-14.412,2.862,8.308,8.308,0,0,1-7.609,0A31.931,31.931,0,0,0,33.831,24.25,16.511,16.511,0,0,0,21.34,29.136c-4.653,4.889-5.509,12.249-5.548,16.779-4.312-11.082-3.472-22.439,2.467-30.681Zm-4.83,45.721c-.664-4.239-.52-8.88.286-9.942a4.043,4.043,0,0,1,2.418.313c.349,3.346.809,5.852,1.228,8.044a37.224,37.224,0,0,1,.908,7.561c0,.393-.023.774-.034,1.162a14.9,14.9,0,0,1-4.807-7.137Zm9.056-2.425a81.5,81.5,0,0,1-1.319-9.074c-.4-3.138-.458-12.338,4.078-17.1A11.209,11.209,0,0,1,33.831,29.1a26.569,26.569,0,0,1,11.916,2.267,13.933,13.933,0,0,0,12.6,0A26.588,26.588,0,0,1,70.264,29.1a11.213,11.213,0,0,1,8.588,3.247c5.449,5.708,4.1,16.99,4.073,17.2a80.609,80.609,0,0,1-1.3,8.972,41.269,41.269,0,0,0-.989,8.407c0,1.271.052,2.522.107,3.754.029.691.057,1.375.078,2.1.284,6.337-.021,11.281-6.579,17.217a51.953,51.953,0,0,0-8.26,9.921c-3.214,4.709-4.825,6.79-9.145,6.79H47.259c-4.325,0-5.928-2.081-9.142-6.79A51.978,51.978,0,0,0,29.868,90C23.31,84.06,23.005,79.116,23.291,72.75c.018-.669.047-1.343.075-2.025.055-1.242.107-2.505.107-3.785a41.27,41.27,0,0,0-.989-8.417ZM5.2,138.225V116.933a2.484,2.484,0,0,1,2.207-2.4l17.748-2.471c-1.515,6.86-.627,12.448,2.7,16.616,5.624,7.045,15.942,7.125,16.377,7.125a2.671,2.671,0,0,0,2.082-.97l5.725-7.113,5.725,7.113a2.671,2.671,0,0,0,2.082.97c.435,0,10.753-.08,16.377-7.125,3.331-4.169,4.218-9.753,2.7-16.614l14.75,2.061v24.1a6.76,6.76,0,0,0,.479,2.425H7.807a2.518,2.518,0,0,1-2.6-2.425Zm93.686,0v-58.2a2.518,2.518,0,0,1,2.6-2.425h5.2v63.05h-5.2A2.518,2.518,0,0,1,98.89,138.225Zm52.048,0a2.518,2.518,0,0,1-2.6,2.425H111.9V77.6h36.433a2.518,2.518,0,0,1,2.6,2.425Z" transform="translate(0 0)" fill="#b7b7b7"/>
    <path id="Shape-2" data-name="Shape" d="M60,35H48.333A3.333,3.333,0,0,0,45,38.333v5a3.333,3.333,0,0,0,3.333,3.333H60a3.333,3.333,0,0,0,3.333-3.333v-5A3.333,3.333,0,0,0,60,35ZM48.333,43.333v-5H60v5Z" transform="translate(86.143 53.381)" fill="#b7b7b7"/>
    <path id="Shape-3" data-name="Shape" d="M61.667,49h-15a1.667,1.667,0,1,0,0,3.333h15a1.667,1.667,0,1,0,0-3.333Z" transform="translate(86.143 78.167)" fill="#b7b7b7"/>
    <path id="Shape-4" data-name="Shape" d="M55,53H46.667a1.667,1.667,0,0,0,0,3.333H55A1.667,1.667,0,1,0,55,53Z" transform="translate(86.143 80.833)" fill="#b7b7b7"/>
  </g>
</svg>
