<svg height="512" viewBox="0 0 60 60" width="512" xmlns="http://www.w3.org/2000/svg"><g id="Page-1" fill="none" fill-rule="evenodd"><g id="022---Male-Teacher" fill="rgb(0,0,0)" fill-rule="nonzero"><path id="Shape" d="m57 30h-18c-1.6568542 0-3 1.3431458-3 3v12.039l-6-.9v-5.676c2.1953554-2.0257671 3.3286591-4.9541144 3.069-7.93 1.878749-1.1375609 3.2279077-2.9756547 3.75-5.109.3-2.035.521-5.552-1.326-6.239-.033-.013-.073-.023-.109-.035.794-3.344 1.679-7.124.565-10.466-1.7-5.088-6.8-5.972-9.637-5.726-1.092-.839-4.528-2.958-11.382-2.958-3.8606864-.01010345-7.46415877 1.93445444-9.575 5.167-2.604 3.88-3.055 9.142-1.255 14.25-1.394 1.035-1.189 4.144-.91 6.047.53133775 2.1172684 1.87728204 3.9390553 3.745 5.069-.26050386 2.9749139.87127956 5.9027804 3.065 7.929v5.676l-7.451 1.114c-1.46972715.2174181-2.55603828 1.4822951-2.549 2.968v8.78c0 1.6568542 1.34314575 3 3 3h54c1.6568542 0 3-1.3431458 3-3v-24c0-1.6568542-1.3431458-3-3-3zm-37 19.986c-3.3177922-.4636323-6.2533389-2.3893509-8-5.248v-3.907c.349.5.668.985.959 1.443 1.219 1.916 2.371 3.726 5.201 3.726h3.68c2.831 0 3.982-1.81 5.2-3.726.292-.458.61-.945.959-1.442v3.9c-1.7571931 2.8490094-4.6864126 4.7730148-7.999 5.254zm-8.521-2.569c1.7559424 2.0886856 4.118032 3.5795385 6.759 4.266l-1.715 2.285c-1.6286869-.1072748-3.1461462-.8638429-4.212-2.1-.8582931-1.3139545-1.1577034-2.9157278-.832-4.451zm17.042 0c.3240498 1.531045.0277238 3.1281125-.824 4.441-1.0704108 1.2369301-2.5900807 1.9956852-4.222 2.108l-1.713-2.283c2.640968-.6864615 5.0030576-2.1773144 6.759-4.266zm6.326-22.317c-.3070888 1.1616154-.9523929 2.2057969-1.854 3 0-.166-.013-.327-.013-.495.016613-1.0477556.1334793-2.0915155.349-3.117.162-.91.34-1.949.472-3.318.2872772-.1433034.6136732-.188275.929-.128.31.433.37 2.345.117 4.058zm-27.831-18.818c1.74235582-2.67574814 4.7209759-4.28737957 7.914-4.282 7.451 0 10.343 2.688 10.37 2.709.2218916.22052861.5342004.3245082.844.281.253-.035 6.205-.8 7.912 4.326.776 2.328.343 5.121-.244 7.768-.1517597-1.8517781-.8514917-3.6164258-2.01-5.069-1.2208014-1.353153-2.9811549-2.09182698-4.802-2.015-1.915346-.07264331-3.8186277.3328952-5.538 1.18-.9086988.5071359-2.0153012.5071359-2.924 0-1.7195524-.8465852-3.6227013-1.25209544-5.538-1.18-1.8201567-.07622333-3.57965215.6623982-4.8 2.015-1.788 2.016-2.117 5.051-2.132 6.919-1.657-4.57-1.334-9.253.948-12.652zm-1.856 18.854c-.255-1.748-.2-3.662.11-4.1.31542255-.0604947.64199384-.0151474.929.129.134 1.38.311 2.413.472 3.317.21558415 1.025812.33245077 2.0699098.349 3.118 0 .162-.009.319-.013.479-.88418673-.7843983-1.52514029-1.8056903-1.847-2.943zm3.48-1c-.23449862-1.2375802-.40373245-2.4866394-.507-3.742-.155-1.294-.176-5.088 1.567-7.052.8422069-.9208451 2.0541563-1.4137045 3.3-1.342 1.5800278-.0699996 3.1528991.2511697 4.579.935 1.50756.8275768 3.33344.8275768 4.841 0 1.4264952-.6837161 2.9996602-1.0048753 4.58-.935 1.2453373-.0723191 2.4571485.4193825 3.3 1.339 2.094 2.354 1.575 7.006 1.565 7.091-.101694 1.2412452-.2685911 2.4762839-.5 3.7-.2373145 1.1408447-.3645648 2.3018363-.38 3.467 0 .524.02 1.04.041 1.548.011.285.022.567.03.864.109 2.613-.008 4.652-2.528 7.1-1.2215236 1.2285559-2.2875062 2.6025114-3.174 4.091-1.235 1.942-1.854 2.8-3.514 2.8h-3.68c-1.662 0-2.278-.858-3.513-2.8-.8855446-1.4871538-1.9501606-2.8600718-3.17-4.088-2.52-2.448-2.637-4.487-2.527-7.112.007-.276.018-.554.029-.835.021-.512.041-1.033.041-1.561-.01517936-1.1665018-.142431-2.3288451-.38-3.471zm-6.64 32.864v-8.78c-.00129531-.4945855.3591594-.9158244.848-.991l6.82-1.019c-.582 2.829-.241 5.133 1.039 6.852 2.161 2.905 6.126 2.938 6.293 2.938.3147573 0 .6111456-.1481942.8-.4l2.2-2.933 2.2 2.933c.1888544.2518058.4852427.4.8.4.167 0 4.132-.033 6.293-2.938 1.28-1.719 1.621-4.022 1.039-6.851l5.668.85v9.939c.0033144.3414397.0655622.679743.184 1h-33.184c-.55228475 0-1-.4477153-1-1zm36 0v-24c0-.5522847.4477153-1 1-1h2v26h-2c-.5522847 0-1-.4477153-1-1zm20 0c0 .5522847-.4477153 1-1 1h-14v-26h14c.5522847 0 1 .4477153 1 1z"/><path id="Shape" d="m54 35h-7c-1.1045695 0-2 .8954305-2 2v3c0 1.1045695.8954305 2 2 2h7c1.1045695 0 2-.8954305 2-2v-3c0-1.1045695-.8954305-2-2-2zm-7 5v-3h7v3z"/><path id="Shape" d="m55 49h-9c-.5522847 0-1 .4477153-1 1s.4477153 1 1 1h9c.5522847 0 1-.4477153 1-1s-.4477153-1-1-1z"/><path id="Shape" d="m51 53h-5c-.5522847 0-1 .4477153-1 1s.4477153 1 1 1h5c.5522847 0 1-.4477153 1-1s-.4477153-1-1-1z"/></g></g></svg>